<svg xmlns="http://www.w3.org/2000/svg" width="76" height="76" viewBox="0 0 76 76">
    <g id="logo_verde_negativo" data-name="logo verde negativo" transform="translate(-285.161 -161.567)">
        <rect id="brand-bg" data-name="Retângulo 2" width="76" height="76" transform="translate(285.161 161.567)" fill="#007030"></rect>
        <g id="name-brand" data-name="Grupo 2" transform="translate(290.445 164.37)">
            <path id="Caminho_1" data-name="Caminho 1" d="M319.556,395.212v-2.927H313.4v-3.168a1.679,1.679,0,0,1,1.29-1.673s4.039-.469,4.868-.613v-2.989l-5.233.658a2.516,2.516,0,0,0-2.242,2.366,3.545,3.545,0,0,0-3.616-2.935,3.8,3.8,0,0,0-2.881,1.306c-1.037,1.2-1.037,2.882-1.016,4.54v5.435Zm-12.691-2.927V390a3.534,3.534,0,0,1,.353-2.115,1.874,1.874,0,0,1,1.679-.788,2.073,2.073,0,0,1,1.741.829,2.638,2.638,0,0,1,.414,1.638v2.721Z" transform="translate(-304.449 -324.741)" fill="#fff" fill-rule="evenodd"></path>
            <path id="Caminho_2" data-name="Caminho 2" d="M324.81,269.189c3.65,0,5.485-2.283,5.485-5.167,0-3.665-2.64-5.307-5.568-5.307-2.908,0-5.465,1.582-5.465,5.247C319.263,267.947,322.294,269.189,324.81,269.189Zm.042-2.915c-.978,0-3.636-.021-3.636-2.312,0-2.078,1.977-2.354,3.4-2.354,2.849,0,3.678.933,3.678,2.312C328.3,265.467,327.254,266.273,324.852,266.273Z" transform="translate(-315.058 -234.433)" fill="#fff" fill-rule="evenodd"></path>
            <path id="Caminho_3" data-name="Caminho 3" d="M330.537,230.462v-2.642H324.4a2.694,2.694,0,0,1-1.6-.51,2.352,2.352,0,0,1-1.006-1.972,1.886,1.886,0,0,1,1.175-1.862,2.5,2.5,0,0,1,1.14-.166h6.423v-2.642h-5.659a8.68,8.68,0,0,0-3.13.29,3.611,3.611,0,0,0-1.969,3.45,3.721,3.721,0,0,0,2.064,3.413h-1.815v2.642Z" transform="translate(-315.43 -206.973)" fill="#fff" fill-rule="evenodd"></path>
            <rect id="Retângulo_3" data-name="Retângulo 3" width="14.988" height="2.642" transform="translate(0.142)" fill="#fff"></rect>
            <path id="Caminho_4" data-name="Caminho 4" d="M324.825,320.2c-3.052,0-5.525-1.46-5.525-4.866,0-3.357,1.549-4.529,3.9-4.618v2.669c-1.25.152-2.112.562-2.112,1.949,0,1.627,1.673,2.09,3.736,2.09s3.692-.694,3.692-2.09c0-1.449-.767-1.9-2.254-2.027v-2.662c2.237.107,4.088,1.4,4.088,4.689C330.35,318.761,327.877,320.2,324.825,320.2Z" transform="translate(-315.084 -271.915)" fill="#fff" fill-rule="evenodd"></path>
            <path id="Caminho_5" data-name="Caminho 5" d="M330.207,347.841h-6.851a4.227,4.227,0,0,0-2.58.694c-1.21.925-1.454,3.038-1.454,3.917a5.524,5.524,0,0,0,.858,3.2,2.961,2.961,0,0,0,2.491,1.194v-2.691a1.607,1.607,0,0,1-1.7-1.815,1.638,1.638,0,0,1,1.051-1.712,4.128,4.128,0,0,1,1.4-.147,13.083,13.083,0,0,0,.586,4.585,3.347,3.347,0,0,0,3.286,2.24,3.113,3.113,0,0,0,2.24-.951,3.491,3.491,0,0,0,.838-2.637,4.18,4.18,0,0,0-1.612-3.334l1.444-.053Zm-5.143,2.642a3.906,3.906,0,0,1,2.823.692,2.156,2.156,0,0,1,.655,1.557c0,1.211-.718,1.816-1.485,1.816C325.7,354.549,324.9,353.624,325.064,350.483Z" transform="translate(-315.1 -298.754)" fill="#fff" fill-rule="evenodd"></path>
            <path id="Caminho_6" data-name="Caminho 6" d="M330.143,184.731h-6.851a4.225,4.225,0,0,0-2.579.694c-1.21.925-1.454,3.038-1.454,3.917a5.527,5.527,0,0,0,.858,3.2,2.961,2.961,0,0,0,2.491,1.193v-2.691a1.606,1.606,0,0,1-1.7-1.815,1.638,1.638,0,0,1,1.051-1.713,4.123,4.123,0,0,1,1.4-.147,13.089,13.089,0,0,0,.586,4.585,3.347,3.347,0,0,0,3.287,2.24,3.114,3.114,0,0,0,2.24-.951,3.491,3.491,0,0,0,.838-2.637,4.179,4.179,0,0,0-1.612-3.334l1.444-.053ZM325,187.373a3.907,3.907,0,0,1,2.822.692,2.156,2.156,0,0,1,.655,1.557c0,1.211-.717,1.816-1.485,1.816C325.638,191.438,324.84,190.513,325,187.373Z" transform="translate(-315.054 -181.032)" fill="#fff" fill-rule="evenodd"></path>
            <g id="Grupo_1" data-name="Grupo 1" transform="translate(0 35.519)">
                <rect id="Retângulo_4" data-name="Retângulo 4" width="10.489" height="2.642" transform="translate(4.598 0.044)" fill="#fff"></rect>
                <rect id="Retângulo_5" data-name="Retângulo 5" width="2.416" height="2.74" fill="#fff"></rect>
            </g>
        </g>
        <rect id="brand-rect" data-name="Retângulo 6" width="45.09" height="2.642" transform="translate(310.571 164.37)" fill="#fff"></rect>
    </g>
</svg>