
<svg xmlns="http://www.w3.org/2000/svg" width="127.486" height="153.208" viewBox="0 0 127.486 153.208"><defs><style>.a{fill:#0f0f0f;}.b{fill:#003f8f;fill-rule:evenodd;}</style></defs><g transform="translate(1207.328 963.578)"><path class="a" d="M148.389,456.349h35.158v8.671h-11.8V492.58H160.182V465.02H148.389v-8.671Z" transform="translate(-1353.887 -1328.858)"/><path class="a" d="M274.809,492.467l5.725,1.263a20.326,20.326,0,0,1-.866,2.507,20.943,20.943,0,0,1-1.167,2.221l2.752,1.87c.338.213.768.467,1.3.765l-3.944,4.479c-.719-.376-1.468-.813-2.236-1.311s-1.468-.929-2.083-1.281a14.7,14.7,0,0,1-3.815,1.809,21.175,21.175,0,0,1-6.008.783q-5.28,0-7.851-2.167a6.651,6.651,0,0,1-2.574-5.263,6.829,6.829,0,0,1,1.511-4.206,11.3,11.3,0,0,1,4.952-3.35,12.711,12.711,0,0,1-1.978-3,6.534,6.534,0,0,1-.54-2.586,5.7,5.7,0,0,1,2.138-4.571q2.147-1.8,6.5-1.8,4.45,0,6.537,1.706a5.139,5.139,0,0,1,2.082,4.091,5.439,5.439,0,0,1-.639,2.561,6.441,6.441,0,0,1-1.536,1.991,36.585,36.585,0,0,1-3.219,2.276,45.509,45.509,0,0,0,4.012,3.538,16.451,16.451,0,0,0,.952-2.331Zm-8.422-4.57a7.628,7.628,0,0,0,2.193-1.663,2.671,2.671,0,0,0,.774-1.7,1.818,1.818,0,0,0-.645-1.408,2.563,2.563,0,0,0-1.781-.583,2.6,2.6,0,0,0-1.819.643,1.981,1.981,0,0,0-.7,1.512q0,1.1,1.978,3.2Zm-2.611,6.331a7.679,7.679,0,0,0-2,1.8,2.809,2.809,0,0,0-.5,1.584,3.053,3.053,0,0,0,1.136,2.312,4.265,4.265,0,0,0,2.949,1.014,8.623,8.623,0,0,0,4.411-1.512q-2.34-1.784-6-5.2Z" transform="translate(-1415.494 -1341.853)"/><path class="a" d="M374.874,486.308H361.788l-1.8,6.012H348.253L362.221,455.9h12.522L388.72,492.32H376.7l-1.826-6.012Zm-2.406-7.877-4.111-13.091-4.085,13.091Z" transform="translate(-1470.433 -1328.598)"/><path class="a" d="M149.628,581.772V568.786h3.24a9.3,9.3,0,0,1,2.367.187,2.729,2.729,0,0,1,1.465,1.282,4.947,4.947,0,0,1,.578,2.533,5.06,5.06,0,0,1-.5,2.362,2.993,2.993,0,0,1-1.247,1.336,6.086,6.086,0,0,1-2.574.387h-1.321v4.9Zm2.01-10.788v3.682h1.114a4.6,4.6,0,0,0,1.525-.166,1.383,1.383,0,0,0,.658-.608,2.375,2.375,0,0,0-.006-2.165,1.351,1.351,0,0,0-.657-.6,5.689,5.689,0,0,0-1.653-.148Zm7.3,10.788V568.786h4.243a5.586,5.586,0,0,1,2.327.351,2.662,2.662,0,0,1,1.145,1.212,4.429,4.429,0,0,1,.448,2.068,4.047,4.047,0,0,1-.683,2.455,3.009,3.009,0,0,1-1.948,1.167,5.193,5.193,0,0,1,1.069,1.086,15.518,15.518,0,0,1,1.157,2.114l1.21,2.534h-2.4l-1.463-2.827a18.459,18.459,0,0,0-1.071-1.917,1.627,1.627,0,0,0-.6-.532,2.584,2.584,0,0,0-1.012-.146h-.416v5.421Zm2.01-7.5h1.5a7.094,7.094,0,0,0,1.743-.127,1.126,1.126,0,0,0,.607-.517,2.039,2.039,0,0,0,.232-1.037,1.9,1.9,0,0,0-.232-1,1.2,1.2,0,0,0-.632-.517,7.423,7.423,0,0,0-1.636-.1h-1.579v3.292Zm8.056,7.5V568.786h7.41v2.2h-5.4v2.878h5.018v2.186h-5.018v3.535H176.6v2.189Zm2.583-13.854.938-2.649h2.152l-1.877,2.649Zm6.137,10.389v-2.488h3.762v2.488Zm5.233,3.465V568.786H189.8v2.2h-4.834v3.071h4.179v2.2h-4.179v5.518Zm16.742,0h-2.191l-.873-2.951h-3.986l-.822,2.951h-2.143l3.886-12.986H195.7l3.994,12.986Zm-3.711-5.137-1.372-4.82-1.352,4.82Zm4.774-7.849h4a5.788,5.788,0,0,1,2.3.32,2.625,2.625,0,0,1,1.123,1.125,3.872,3.872,0,0,1,.065,3.52,2.678,2.678,0,0,1-1.012,1.122,2.715,2.715,0,0,1,1.389,1.152,3.682,3.682,0,0,1,.5,1.984,4.294,4.294,0,0,1-.64,2.395,2.644,2.644,0,0,1-1.511,1.209,14.747,14.747,0,0,1-2.815.16h-3.4V568.786Zm2.01,2.162v3H204.1a13.653,13.653,0,0,0,1.479-.045,1.238,1.238,0,0,0,.805-.463,1.965,1.965,0,0,0,.054-1.959,1,1,0,0,0-.573-.447,11.679,11.679,0,0,0-1.931-.088Zm0,5.164v3.471h1.87a5.5,5.5,0,0,0,1.577-.136,1.2,1.2,0,0,0,.587-.541,2.012,2.012,0,0,0,.236-1.022,1.987,1.987,0,0,0-.253-1.049,1.319,1.319,0,0,0-.672-.569,6.047,6.047,0,0,0-1.715-.154Zm8.065,5.66V568.786h4.244a5.586,5.586,0,0,1,2.327.351,2.66,2.66,0,0,1,1.146,1.212,4.429,4.429,0,0,1,.448,2.068,4.047,4.047,0,0,1-.683,2.455,3.009,3.009,0,0,1-1.947,1.167,5.214,5.214,0,0,1,1.069,1.086,15.53,15.53,0,0,1,1.156,2.114l1.211,2.534h-2.4l-1.462-2.827a18.52,18.52,0,0,0-1.072-1.917,1.63,1.63,0,0,0-.6-.532,2.587,2.587,0,0,0-1.012-.146h-.417v5.421Zm2.01-7.5h1.5a7.1,7.1,0,0,0,1.743-.127,1.125,1.125,0,0,0,.607-.517,2.039,2.039,0,0,0,.232-1.037,1.9,1.9,0,0,0-.232-1,1.2,1.2,0,0,0-.632-.517,7.426,7.426,0,0,0-1.636-.1h-1.579v3.292Zm7.991,7.5V568.786h2.01v12.986ZM231.167,577l1.953.8a5.992,5.992,0,0,1-1.52,3.187,3.673,3.673,0,0,1-2.617,1,3.787,3.787,0,0,1-3.164-1.6,8.092,8.092,0,0,1-1.4-4.995,8.5,8.5,0,0,1,1.406-5.2,3.888,3.888,0,0,1,3.28-1.63,3.674,3.674,0,0,1,2.807,1.221,5.475,5.475,0,0,1,1.179,2.579l-1.993.62a2.94,2.94,0,0,0-.76-1.617,1.849,1.849,0,0,0-1.341-.563,2.1,2.1,0,0,0-1.8,1.028,6.231,6.231,0,0,0-.7,3.392,6.639,6.639,0,0,0,.68,3.489,2.042,2.042,0,0,0,1.769,1.037,1.777,1.777,0,0,0,1.378-.659,4.313,4.313,0,0,0,.839-2.1Zm12.675,4.774h-2.191l-.873-2.951h-3.986l-.822,2.951h-2.143l3.887-12.986h2.134l3.994,12.986Zm-3.711-5.137-1.372-4.82-1.352,4.82Zm4.768-7.849h3.677a5.189,5.189,0,0,1,2.106.332,3.553,3.553,0,0,1,1.307,1.122,5.918,5.918,0,0,1,.941,2.044,12.174,12.174,0,0,1,.341,3.127,10.69,10.69,0,0,1-.357,2.93,6.074,6.074,0,0,1-.907,1.971,3.534,3.534,0,0,1-1.324,1.091,4.684,4.684,0,0,1-2,.369H244.9V568.786Zm2.007,2.2v8.6h1.514a3.7,3.7,0,0,0,1.406-.194,1.7,1.7,0,0,0,.714-.589,3.472,3.472,0,0,0,.462-1.246,11.059,11.059,0,0,0,.181-2.24,10.9,10.9,0,0,0-.187-2.277,3.088,3.088,0,0,0-.581-1.309,1.819,1.819,0,0,0-.958-.629,7.36,7.36,0,0,0-1.635-.115Zm7.668,4.375a9.72,9.72,0,0,1,.644-3.821A5.116,5.116,0,0,1,256.9,569.3a4.483,4.483,0,0,1,6.01,1.01,7.986,7.986,0,0,1,1.349,4.971,8.1,8.1,0,0,1-1.429,5.092,4.071,4.071,0,0,1-3.4,1.62,4.112,4.112,0,0,1-3.422-1.6,7.987,7.987,0,0,1-1.429-5.031Zm2.075-.088a5.81,5.81,0,0,0,.8,3.359,2.364,2.364,0,0,0,1.979,1.122,2.333,2.333,0,0,0,1.967-1.113,5.977,5.977,0,0,0,.78-3.414,5.866,5.866,0,0,0-.76-3.341,2.325,2.325,0,0,0-1.987-1.08,2.353,2.353,0,0,0-2,1.089,5.89,5.89,0,0,0-.774,3.377Zm8.672,2.277,1.967-.251q.331,2.49,2.177,2.492a1.96,1.96,0,0,0,1.434-.511,1.676,1.676,0,0,0,.524-1.261,1.449,1.449,0,0,0-.181-.753,1.368,1.368,0,0,0-.558-.511,15.241,15.241,0,0,0-1.809-.668,5.914,5.914,0,0,1-1.885-.9,3.374,3.374,0,0,1-.953-1.279,4.147,4.147,0,0,1-.351-1.705,4.03,4.03,0,0,1,.451-1.914,3.089,3.089,0,0,1,1.25-1.285,4.1,4.1,0,0,1,1.97-.432,3.641,3.641,0,0,1,2.747,1.019,4.191,4.191,0,0,1,1.046,2.915l-2.015.115a2.415,2.415,0,0,0-.576-1.464,1.762,1.762,0,0,0-1.253-.414,1.92,1.92,0,0,0-1.253.363,1.121,1.121,0,0,0-.442.9,1.155,1.155,0,0,0,.4.892,5.42,5.42,0,0,0,1.834.8,7.347,7.347,0,0,1,2.2.989,3.334,3.334,0,0,1,1.035,1.337,4.971,4.971,0,0,1,.357,1.989,4.251,4.251,0,0,1-.975,2.842A3.787,3.787,0,0,1,269.406,582q-3.67,0-4.085-4.454Z" transform="translate(-1354.609 -1392.372)"/><path class="b" d="M144,237.89H271.486v83.422H220.457v-50.54l21.774-7.307V245.173H173.109v18.293l21.92,7.307v50.54H144V237.89Z" transform="translate(-1351.328 -1201.468)"/></g><script xmlns="" id="bw-fido2-page-script"/></svg>